<svg xmlns="http://www.w3.org/2000/svg" width="112" height="88.779" viewBox="0 0 112 88.779"><defs><style>.a{fill:#ff5100;}</style></defs><path class="a" d="M370.333,178.333A2.333,2.333,0,0,1,368,176v-2.333a2.3,2.3,0,0,1,.236-1.02l10.22-21a2.343,2.343,0,0,1,1.279-1.164l43.444-16.333a2.333,2.333,0,0,1,2.966,3.1l-14,32.667a2.336,2.336,0,0,1-1.738,1.379l-39.667,7A2.387,2.387,0,0,1,370.333,178.333Zm11.912-23.809-9.053,18.6,35.161-6.207L419.7,140.442Z" transform="translate(-368 -134.001)"/><g transform="translate(9.333 41.999)"><path class="a" d="M418.667,198.781,372,184.043V152h4.667v28.623l42,13.263,42-13.263V152h4.667v32.043Z" transform="translate(-372 -152)"/></g><g transform="translate(53.667 0.001)"><path class="a" d="M447,178.332a2.386,2.386,0,0,1-.406-.035l-39.667-7a2.336,2.336,0,0,1-1.738-1.379l-14-32.667a2.333,2.333,0,0,1,2.966-3.1L437.6,150.481a2.343,2.343,0,0,1,1.279,1.164l10.22,21a2.3,2.3,0,0,1,.236,1.02V176A2.333,2.333,0,0,1,447,178.332ZM408.981,166.92l35.161,6.207-9.053-18.6-37.455-14.082Z" transform="translate(-391 -134.001)"/></g><g transform="translate(15.7 62.827)"><rect class="a" width="5.129" height="5.129" transform="translate(0 0)"/></g><g transform="translate(23.393 65.391)"><rect class="a" width="5.129" height="5.129" transform="translate(0 0)"/></g><g transform="translate(54.166 2.564)"><rect class="a" width="3.847" height="83.342" transform="translate(0 0)"/></g></svg>