<svg xmlns="http://www.w3.org/2000/svg" width="496" height="341.846" viewBox="0 0 496 341.846"><defs><style>.a{fill:#fff;}.b{fill:#3f3d56;}.c{fill:#e6e6e6;}.d{fill:#ff5100;}.e{fill:#ccc;}.f{fill:#fea54c;}.g{fill:#a0616a;}.h{fill:#070a0d;}</style></defs><g transform="translate(-1483.111 -6050)"><g transform="translate(1598.298 6050)"><path class="a" d="M776.564,387.837h-.134l-76.7,32.75L594.8,465.4a3.385,3.385,0,0,1-2.592.013L483.939,420.493l-78.581-32.6-.12-.053H405.1a4.682,4.682,0,0,0-4.677,4.677v203.1a4.682,4.682,0,0,0,4.677,4.677H776.563a4.682,4.682,0,0,0,4.677-4.677v-203.1A4.682,4.682,0,0,0,776.564,387.837Z" transform="translate(-400.427 -258.444)"/><path class="b" d="M779.892,324.891a.666.666,0,0,1-.381-.12L594.743,196.095a3.351,3.351,0,0,0-3.827.007L407.48,324.77a.668.668,0,1,1-.767-1.094L590.149,195.007a4.691,4.691,0,0,1,5.358-.009L780.274,323.674a.668.668,0,0,1-.382,1.216Z" transform="translate(-402.419 -194.162)"/><path class="c" d="M194.121,138.051,369.168,8.319,545.545,147.282,378.188,246.494l-90.861-20.711Z" transform="translate(-178.578 -2.761)"/><path class="d" d="M529.715,646.69H443.237a4.04,4.04,0,1,1,0-8.08h86.478a4.04,4.04,0,0,1,0,8.08Z" transform="translate(-413.295 -341.678)"/><path class="d" d="M474.263,620.69H443.237a4.04,4.04,0,0,1,0-8.08h31.026a4.04,4.04,0,1,1,0,8.08Z" transform="translate(-413.295 -333.048)"/><path class="a" d="M634.8,410.4a5.052,5.052,0,0,1-1.917-.375L524.929,365.229V225.014a4.682,4.682,0,0,1,4.677-4.677H736.714a4.682,4.682,0,0,1,4.677,4.677V365.326l-.2.087L636.778,410a5.088,5.088,0,0,1-1.975.4Z" transform="translate(-441.751 -202.85)"/><path class="b" d="M634.638,410.567a5.394,5.394,0,0,1-2.044-.4L524.429,365.286V224.848a5.016,5.016,0,0,1,5.011-5.011H736.548a5.016,5.016,0,0,1,5.011,5.011V365.382L636.743,410.143A5.418,5.418,0,0,1,634.638,410.567ZM525.765,364.394,633.1,408.932a4.088,4.088,0,0,0,3.119-.019l104-44.414V224.848a3.679,3.679,0,0,0-3.674-3.674H529.44a3.679,3.679,0,0,0-3.674,3.675Z" transform="translate(-441.585 -202.684)"/><path class="b" d="M776.564,387.837h-.134l-76.7,32.75L594.8,465.4a3.385,3.385,0,0,1-2.592.013L483.939,420.493l-78.581-32.6-.12-.053H405.1a4.682,4.682,0,0,0-4.677,4.677v203.1a4.682,4.682,0,0,0,4.677,4.677H776.563a4.682,4.682,0,0,0,4.677-4.677v-203.1A4.682,4.682,0,0,0,776.564,387.837Zm3.34,207.777a3.342,3.342,0,0,1-3.34,3.341H405.1a3.342,3.342,0,0,1-3.34-3.34v-203.1a3.348,3.348,0,0,1,3.214-3.34l78.962,32.763,107.75,44.709a4.757,4.757,0,0,0,3.634-.02l104.409-44.588L776.7,389.173a3.351,3.351,0,0,1,3.207,3.341Z" transform="translate(-400.427 -258.444)"/><path class="d" d="M625.067,293.478h-73.49a5.345,5.345,0,1,1,0-10.689h73.49a5.345,5.345,0,0,1,0,10.689Z" transform="translate(-448.821 -223.578)"/><path class="d" d="M586.986,259.478H551.577a5.345,5.345,0,1,1,0-10.689h35.409a5.345,5.345,0,0,1,0,10.689Z" transform="translate(-448.821 -212.293)"/><path class="e" d="M710.784,373.478H598.545a5.345,5.345,0,0,1,0-10.69H710.784a5.345,5.345,0,0,1,0,10.69Z" transform="translate(-464.41 -250.131)"/><path class="e" d="M710.784,410.479H598.545a5.345,5.345,0,0,1,0-10.69H710.784a5.345,5.345,0,0,1,0,10.69Z" transform="translate(-464.41 -262.411)"/></g><g transform="translate(1483.111 6160.195)"><path class="f" d="M267.606,403.222a3.012,3.012,0,0,1-2.947-2.416l-2.431-12.119a24.72,24.72,0,0,1,48.474-9.722l2.43,12.119a3.01,3.01,0,0,1-2.356,3.539l-42.578,8.54A3.019,3.019,0,0,1,267.606,403.222Z" transform="translate(-240.249 -359.103)"/><path class="g" d="M148.489,486.423h-7.638l-3.632-29.46h11.272Z" transform="translate(-45.545 -261.864)"/><path class="h" d="M129.882,497.791h14.73v9.274h-24a9.274,9.274,0,0,1,9.274-9.274Z" transform="translate(-40.031 -275.416)"/><path class="g" d="M31.475,485.283,24.442,482.3l8.143-28.545,10.379,4.4Z" transform="translate(-8.113 -260.802)"/><path class="h" d="M9.274,0H24V9.274H0A9.274,9.274,0,0,1,9.274,0Z" transform="matrix(0.921, 0.39, -0.39, 0.921, 3.617, 213.747)"/><circle class="g" cx="16.409" cy="16.409" r="16.409" transform="translate(30.507 8.265)"/><path class="h" d="M294,481.294l-.168-.547c-4.471-14.534-9.093-29.556-13.721-43.844l-.125-.386.284-.289c7.184-7.308,20.642-10.223,31.306-6.778,10.732,3.464,18.128,13.182,17.2,22.6a24.139,24.139,0,0,0,4.294,15.963l.428.621-.669.35a121.507,121.507,0,0,1-38.266,12.223Z" transform="translate(-246.303 -381.973)"/><path class="h" d="M265.272,620.241a3.331,3.331,0,0,1-1.666-.45l-8.864-5.119a3.322,3.322,0,0,1-1.356-4.307l19.7-46.734,15.053-68.161,27.432-9.975.249.115c29.411,13.51,27.137,110.345,26.383,129.621a3.344,3.344,0,0,1-3.045,3.191L330.9,619.5a3.371,3.371,0,0,1-3.614-2.764L310.45,541.472a.669.669,0,0,0-.55-.58.653.653,0,0,0-.7.329l-41.011,77.308a3.327,3.327,0,0,1-2.037,1.593A3.368,3.368,0,0,1,265.272,620.241Z" transform="translate(-237.37 -401.053)"/><path class="g" d="M280.361,571.483a6.265,6.265,0,0,0-2.586-9.252l.449-14.309-8.629-2.394-.35,20.216a6.3,6.3,0,0,0,11.116,5.738Z" transform="translate(-242.607 -420.979)"/><path class="d" d="M266.707,521.217l-.506,0a3.32,3.32,0,0,1-3.289-3.078c-.828-10.657-3.369-46.958-1.322-66.639a13.872,13.872,0,0,1,16.158-11.631l.527.116,0,.54c-.188,25.894-.176,51.637-.164,76.533a3.339,3.339,0,0,1-2.609,3.267A43.1,43.1,0,0,1,266.707,521.217Z" transform="translate(-239.94 -385.838)"/><path class="d" d="M288.973,549.585a9.074,9.074,0,0,1-8.968-7.971l.727-59.762-11.878-30.044A17.641,17.641,0,0,1,280.2,433.059l3.175-1.191a4.868,4.868,0,0,1,6.273,2.867L301.9,467.8l0,.048c.849,13.162,4.682,78.667-2.96,80.621a42.162,42.162,0,0,1-9.881,1.111Z" transform="translate(-242.563 -383.152)"/><path class="g" d="M399.084,536.9a6.265,6.265,0,0,1-2.947-9.143l-8.267-11.687,5.877-6.756,11.443,16.669a6.3,6.3,0,0,1-6.106,10.918Z" transform="translate(-282.112 -408.959)"/><path class="d" d="M370.177,494.05a2.7,2.7,0,0,1-2.169-1.208l-.043-.066c-13.679-20.7-27.824-42.113-42.16-63.456l-.154-.23.2-.194a12.759,12.759,0,0,1,9.41-3.412,12.574,12.574,0,0,1,9.291,4.358c12.528,15.243,30.407,46.88,35.588,56.213a2.647,2.647,0,0,1-.824,3.5,42.371,42.371,0,0,1-8.127,4.324A2.556,2.556,0,0,1,370.177,494.05Z" transform="translate(-261.461 -381.129)"/><path class="d" d="M360.662,534.089c-8.194.005-37.509-56.442-43.3-67.758l-.05-.137L310.9,431.569a4.866,4.866,0,0,1,3.919-5.674l3.338-.6a17.641,17.641,0,0,1,19.348,10.293l8.374,35.2,28,47.576a9.08,9.08,0,0,1-3.659,11.553,42.14,42.14,0,0,1-9.056,4.106,1.783,1.783,0,0,1-.5.07Z" transform="translate(-256.538 -380.975)"/><path class="f" d="M302.442,385.958H269.371v-4.009a16.721,16.721,0,0,1,16.7-16.7h2.672a16.721,16.721,0,0,1,16.7,16.7v1A3.01,3.01,0,0,1,302.442,385.958Z" transform="translate(-242.782 -361.142)"/></g></g></svg>