<svg xmlns="http://www.w3.org/2000/svg" width="112" height="88.938" viewBox="0 0 112 88.938"><defs><style>.a{fill:#ff5100;}</style></defs><g transform="translate(0 0.349)"><g transform="translate(4.1 14.175)"><path class="a" d="M139.383,331.839h-4.691V320.111H130V306.037h4.691V299h30.493v4.691h-25.8v7.037h-4.691v4.691h4.691Z" transform="translate(-130 -299)"/></g><g transform="translate(13.334 -0.349)"><rect class="a" width="5.06" height="16.444" transform="translate(0)"/></g><g transform="translate(22.189 9.77)"><rect class="a" width="5.06" height="6.325" transform="translate(0 0)"/></g><g transform="translate(15.864 24.95)"><rect class="a" width="3.795" height="5.06" transform="translate(0 0)"/></g><g transform="translate(48.668 25.903)"><path class="a" d="M153.691,325.111H149V304h28.148v16.42h-4.691V308.691H153.691Z" transform="translate(-149 -304)"/></g><g transform="translate(25.211 25.903)"><path class="a" d="M167.148,327.456H139V304h28.148Zm-23.456-4.691h18.765V308.691H143.691Z" transform="translate(-139 -304)"/></g><g transform="translate(72.124 25.903)"><path class="a" d="M187.148,320.42h-4.691V308.691H163.691V320.42H159V304h28.148Z" transform="translate(-159 -304)"/></g><g transform="translate(36.939 9.484)"><path class="a" d="M172.148,318.111H144V297h28.148Zm-23.456-4.691h18.765V301.691H148.691Z" transform="translate(-144 -297)"/></g><g transform="translate(60.396 9.484)"><path class="a" d="M182.148,318.111H154V297h28.148Zm-23.457-4.691h18.765V301.691H158.691Z" transform="translate(-154 -297)"/></g><g transform="translate(4.1 39.977)"><path class="a" d="M219.953,340.573l-4.536-1.2c.973-3.666,4.2-6.694,7.609-9.9,4.468-4.2,9.073-8.524,10.009-14.78H194.081l-11,4.691H134.691V330.93c0,2.951.148,4.888.908,6.052l-3.934,2.561c-1.4-2.153-1.665-4.689-1.665-8.613V314.691h52.123l11-4.691H237.9v2.346c0,9.587-6.467,15.662-11.663,20.545C223.329,335.624,220.58,338.2,219.953,340.573Z" transform="translate(-130 -310)"/></g><g transform="translate(0 64.057)"><path class="a" d="M223.234,331.469l-7.752-6.073a1.764,1.764,0,0,0-2.493.211l-2.892,2.911a6.471,6.471,0,0,1-8.848.486l-4.351-3.577a1.755,1.755,0,0,0-2.484.117l-3.31,3.136a6.474,6.474,0,0,1-8.827.216l-3.962-3.434a1.747,1.747,0,0,0-2.475.028l-3.72,3.328a6.476,6.476,0,0,1-8.824-.049l-3.561-3.26a1.753,1.753,0,0,0-2.477-.061l-4.114,3.493a6.47,6.47,0,0,1-8.834-.324l-3.148-3.052a1.763,1.763,0,0,0-2.486-.152l-7.478,6.035-2.946-3.65,7.478-6.038a6.418,6.418,0,0,1,8.7.439l3.148,3.052a1.752,1.752,0,0,0,2.531.113l4.117-3.493a6.414,6.414,0,0,1,8.681.178l3.558,3.258a1.756,1.756,0,0,0,2.529.016l3.718-3.328a6.42,6.42,0,0,1,8.679-.075l3.959,3.432a1.756,1.756,0,0,0,2.531-.08l3.31-3.134a6.416,6.416,0,0,1,8.691-.333l4.351,3.577a1.761,1.761,0,0,0,2.54-.171l2.89-2.911a6.416,6.416,0,0,1,8.716-.6l7.75,6.073Z" transform="translate(-128.252 -320.266)"/></g><g transform="translate(18.95 77.405)"><path class="a" d="M139.275,337.139l-2.944-3.652,7.478-6.035a6.42,6.42,0,0,1,8.7.436l3.145,3.052a1.755,1.755,0,0,0,2.533.115l4.114-3.493a6.422,6.422,0,0,1,8.681.174l3.561,3.26a1.76,1.76,0,0,0,2.529.016l3.718-3.328a6.414,6.414,0,0,1,8.677-.075l3.962,3.432a1.753,1.753,0,0,0,2.529-.077l3.31-3.136a6.424,6.424,0,0,1,8.691-.338l4.354,3.584a1.754,1.754,0,0,0,2.538-.174l2.892-2.911a6.416,6.416,0,0,1,8.714-.6l2.027,1.588-2.892,3.692-2.027-1.586a1.757,1.757,0,0,0-2.493.209l-2.892,2.913a6.481,6.481,0,0,1-8.85.486l-4.351-3.582a1.757,1.757,0,0,0-2.482.117l-3.31,3.136a6.477,6.477,0,0,1-8.827.221l-3.964-3.434a1.744,1.744,0,0,0-2.472.026l-3.72,3.331a6.479,6.479,0,0,1-8.824-.052l-3.561-3.263a1.755,1.755,0,0,0-2.477-.059l-4.114,3.493a6.473,6.473,0,0,1-8.836-.321l-3.148-3.052a1.761,1.761,0,0,0-2.486-.155Z" transform="translate(-136.331 -325.957)"/></g><g transform="translate(70.257 50.248)"><rect class="a" width="3.795" height="3.795" transform="translate(0 0)"/></g></g></svg>