<svg xmlns="http://www.w3.org/2000/svg" width="112" height="88.805" viewBox="0 0 112 88.805"><defs><style>.a{fill:#ff5100;}</style></defs><g transform="translate(-351.876 -254.167)"><path class="a" d="M377.19,286.162h4.863a12.85,12.85,0,1,1,24.726,0h4.863a17.573,17.573,0,1,0-34.453,0Z" transform="translate(13.457 5.911)"/><path class="a" d="M377.861,269.491a2.362,2.362,0,0,0,3.341-3.339l-5.311-5.311a2.362,2.362,0,0,0-3.341,3.34Z" transform="translate(10.77 3.224)"/><path class="a" d="M367.933,279.533h7.512a2.362,2.362,0,0,0,0-4.725h-7.512a2.362,2.362,0,0,0,0,4.725Z" transform="translate(7.381 11.125)"/><path class="a" d="M400.507,270.183a2.35,2.35,0,0,0,1.67-.693l5.311-5.311a2.362,2.362,0,0,0-3.341-3.34l-5.309,5.311a2.362,2.362,0,0,0,1.67,4.032Z" transform="translate(24.937 3.224)"/><path class="a" d="M403,277.17a2.363,2.363,0,0,0,2.362,2.362h7.51a2.362,2.362,0,0,0,0-4.725h-7.51A2.362,2.362,0,0,0,403,277.17Z" transform="translate(27.555 11.125)"/><path class="a" d="M389.092,266.4a2.362,2.362,0,0,0,2.361-2.362v-7.51a2.361,2.361,0,0,0-4.722,0v7.51A2.361,2.361,0,0,0,389.092,266.4Z" transform="translate(18.785 0)"/><path class="a" d="M463.336,324.367l-31.512-38.132H459.99a2.362,2.362,0,1,0,0-4.723H355.76a2.362,2.362,0,0,0,0,4.723h28.168l-31.51,38.132a2.362,2.362,0,1,0,3.641,3.01l34-41.142H393.6L373.955,324.8a2.361,2.361,0,1,0,4.208,2.142L398.9,286.235h2.993l-7.536,39.191a2.361,2.361,0,1,0,4.637.893l7.709-40.084h2.353l7.709,40.084a2.362,2.362,0,0,0,2.316,1.916,2.333,2.333,0,0,0,.448-.043,2.362,2.362,0,0,0,1.874-2.766l-7.536-39.191h2.992l20.734,40.708A2.361,2.361,0,1,0,441.8,324.8l-19.64-38.566h3.54l34,41.142a2.362,2.362,0,0,0,3.641-3.01Z" transform="translate(0 14.738)"/></g></svg>