<svg xmlns="http://www.w3.org/2000/svg" width="200" height="53" viewBox="0 0 200 53"><defs><style>.a{fill:#fff;}.b{fill:#ff5100;}</style></defs><g transform="translate(3836.364 -913.01)"><path class="a" d="M-3830.841,954.707h16.025v4.19h-21.548V919.283h5.523Z" transform="translate(0 -4.777)"/><path class="a" d="M-3730.97,974.6a17.591,17.591,0,0,1,3.1-10.747,10.019,10.019,0,0,1,8.516-4.19,10.055,10.055,0,0,1,8.53,4.19,17.54,17.54,0,0,1,3.115,10.747v.735q0,6.585-3.1,10.733a10.024,10.024,0,0,1-8.489,4.149,10.105,10.105,0,0,1-8.57-4.149q-3.1-4.149-3.1-10.733Zm5.55.735a17.087,17.087,0,0,0,1.51,7.7,4.894,4.894,0,0,0,4.612,2.993,4.838,4.838,0,0,0,4.53-3.006,17.108,17.108,0,0,0,1.51-7.686V974.6a17.012,17.012,0,0,0-1.523-7.659,4.882,4.882,0,0,0-4.571-3.034,4.855,4.855,0,0,0-4.557,3.034,17.142,17.142,0,0,0-1.51,7.659Z" transform="translate(-80.255 -35.524)"/><path class="a" d="M-3615.2,975.279q0-7.074,2.585-11.346a8.1,8.1,0,0,1,7.291-4.271,7.435,7.435,0,0,1,4.04,1.1,8.979,8.979,0,0,1,2.952,3.143l.517-3.7h4.625V989.7q0,5.658-3.02,8.747t-8.516,3.088a15.565,15.565,0,0,1-4.013-.571,16.11,16.11,0,0,1-3.85-1.551l.9-4.135a14.141,14.141,0,0,0,3.251,1.32,13.934,13.934,0,0,0,3.659.476,5.5,5.5,0,0,0,4.571-1.836q1.469-1.837,1.469-5.564V986.76a8.073,8.073,0,0,1-2.843,2.584,8,8,0,0,1-3.8.871,8.189,8.189,0,0,1-7.237-3.932q-2.585-3.931-2.585-10.434Zm5.551.571a16.652,16.652,0,0,0,1.36,7.373,4.53,4.53,0,0,0,4.326,2.721,5.148,5.148,0,0,0,3.143-.952,6.679,6.679,0,0,0,2.081-2.693V967.824a7.3,7.3,0,0,0-2.081-2.83,4.833,4.833,0,0,0-3.116-1.034q-2.938,0-4.326,3.142a20.429,20.429,0,0,0-1.388,8.176Z" transform="translate(-168.413 -35.524)"/><path class="a" d="M-3501.019,974.6a17.591,17.591,0,0,1,3.1-10.747,10.019,10.019,0,0,1,8.516-4.19,10.054,10.054,0,0,1,8.529,4.19,17.54,17.54,0,0,1,3.115,10.747v.735q0,6.585-3.1,10.733a10.023,10.023,0,0,1-8.488,4.149,10.105,10.105,0,0,1-8.571-4.149q-3.1-4.149-3.1-10.733Zm5.551.735a17.081,17.081,0,0,0,1.51,7.7,4.894,4.894,0,0,0,4.612,2.993,4.838,4.838,0,0,0,4.53-3.006,17.112,17.112,0,0,0,1.51-7.686V974.6a17.018,17.018,0,0,0-1.523-7.659,4.882,4.882,0,0,0-4.571-3.034,4.854,4.854,0,0,0-4.557,3.034,17.136,17.136,0,0,0-1.51,7.659Z" transform="translate(-255.356 -35.524)"/><path class="b" d="M-3381.408,931.6v7.237h5.033v5.768h-5.033V959.3a3.509,3.509,0,0,0,.625,2.34,3.142,3.142,0,0,0,2.394.707,12.5,12.5,0,0,0,2.313-.19v5.958a16.191,16.191,0,0,1-4.761.708q-8.272,0-8.434-8.353V944.608h-4.3V938.84h4.3V931.6Z" transform="translate(-337.176 -14.158)"/><path class="b" d="M-3303.347,917.064a3.873,3.873,0,0,1,1.184-2.911,4.445,4.445,0,0,1,3.224-1.143,4.456,4.456,0,0,1,3.21,1.143,3.849,3.849,0,0,1,1.2,2.911,3.861,3.861,0,0,1-1.211,2.938,4.467,4.467,0,0,1-3.2,1.143,4.467,4.467,0,0,1-3.2-1.143A3.86,3.86,0,0,1-3303.347,917.064Zm8.353,37.056h-7.89V924.682h7.89Z" transform="translate(-405.878)"/><path class="b" d="M-3214.683,975.2q0,6.8-3.088,10.9a9.9,9.9,0,0,1-8.339,4.095,9.171,9.171,0,0,1-7.21-3.1v13.876h-7.863V960.206h7.292l.272,2.884a9.242,9.242,0,0,1,7.455-3.428,9.969,9.969,0,0,1,8.461,4.027q3.02,4.027,3.02,11.1Zm-7.863-.572a11.594,11.594,0,0,0-1.455-6.339,4.743,4.743,0,0,0-4.231-2.231q-3.7,0-5.088,2.829v12.053a5.236,5.236,0,0,0,5.142,2.911Q-3222.546,983.849-3222.546,974.626Z" transform="translate(-453.214 -35.524)"/><path class="b" d="M-3114.8,974.653a17.457,17.457,0,0,1,1.687-7.809,12.347,12.347,0,0,1,4.856-5.305,14.169,14.169,0,0,1,7.36-1.877,13.406,13.406,0,0,1,9.727,3.646,14.636,14.636,0,0,1,4.2,9.9l.054,2.013q0,6.775-3.782,10.869a13.144,13.144,0,0,1-10.148,4.095A13.211,13.211,0,0,1-3111,986.107q-3.8-4.081-3.8-11.1Zm7.863.558a11,11,0,0,0,1.578,6.417,5.205,5.205,0,0,0,4.517,2.22,5.218,5.218,0,0,0,4.462-2.193q1.6-2.194,1.6-7.016a10.9,10.9,0,0,0-1.6-6.376A5.219,5.219,0,0,0-3100.9,966a5.133,5.133,0,0,0-4.462,2.248Q-3106.937,970.5-3106.937,975.211Z" transform="translate(-549.451 -35.524)"/></g></svg>