<svg xmlns="http://www.w3.org/2000/svg" width="112" height="74.667" viewBox="0 0 112 74.667"><defs><style>.a{fill:#ff5100;}</style></defs><g transform="translate(7)"><path class="a" d="M198.667,196.667H180V192h14V140.667H135.667V164H131V136h67.667Z" transform="translate(-131 -136)"/></g><g transform="translate(0 30.333)"><path class="a" d="M181.667,193.333H128V149h53.667Zm-49-4.667H177v-35H132.667Z" transform="translate(-128 -149)"/></g><g transform="translate(16.333 30.333)"><path class="a" d="M156,163H135V149h21Zm-16.333-4.667h11.667v-4.667H139.667Z" transform="translate(-135 -149)"/></g><g transform="translate(8.975 60.726)"><rect class="a" width="5" height="5" transform="translate(0.025 -0.365)"/></g><g transform="translate(19.233 60.726)"><rect class="a" width="4" height="5" transform="translate(-0.233 -0.365)"/></g><g transform="translate(72.333 14)"><path class="a" d="M191.667,188.667H187V184h4.667A2.337,2.337,0,0,0,194,181.667V165.828c0-1.876-.784-2.828-2.333-2.828h-3.705l-8.61-15.5a2.315,2.315,0,0,0-1.818-.838H159V142h18.534a6.99,6.99,0,0,1,5.782,3.054l7.39,13.279h.961c4.186,0,7,3.012,7,7.495v15.839A7.009,7.009,0,0,1,191.667,188.667Z" transform="translate(-159 -142)"/></g><g transform="translate(79.291 49.049)"><path class="a" d="M173.67,180.312a11.646,11.646,0,1,1,11.688-11.646A11.68,11.68,0,0,1,173.67,180.312Zm0-18.625a6.979,6.979,0,1,0,7.021,6.979A7.009,7.009,0,0,0,173.67,161.688Z" transform="translate(-161.982 -157.021)"/></g><g transform="translate(71.802 55.597)"><rect class="a" width="10" height="5" transform="translate(0.198 -0.236)"/></g><g transform="translate(77 24.372)"><path class="a" d="M179.667,159.406H161V154.74h13.529l-3.8-5.706,3.883-2.589,5.059,7.588Z" transform="translate(-161 -146.445)"/></g></svg>